<?xml version="1.0" encoding="UTF-8"?>
<svg id="Layer_1" xmlns="http://www.w3.org/2000/svg" version="1.1" viewBox="0 0 331.8 72.4">
  <!-- Generator: Adobe Illustrator 29.6.1, SVG Export Plug-In . SVG Version: 2.1.1 Build 9)  -->
  <defs>
    <style>
      .st0 {
        fill: #eaaa00;
      }
    </style>
  </defs>
  <g id="WV-Let_x27_s_Go_x21_-124-NQW">
    <g>
      <polygon class="st0" points="112.7 12.3 101.2 12.3 94.3 55.1 100.6 55.1 105.9 55.1 121.4 55.1 123.3 44.3 107.6 44.3 112.7 12.3"/>
      <g>
        <path class="st0" d="M151.6,24c-2-1.1-4.5-1.7-7.4-1.7s-5.5.6-7.8,1.7c-2.3,1.1-4.3,2.7-5.9,4.7-1.6,2-2.5,4.4-2.9,7l-1.1,6.6c-.4,2.6-.2,5,.7,7,.9,2,2.4,3.6,4.4,4.7s4.5,1.7,7.4,1.7,5.4-.4,7.7-1.3c2.3-.9,4.2-2.2,5.7-3.8,1.5-1.6,2.4-3.5,2.7-5.7v-.2c0,0-10.9,0-10.9,0v.3c-.2.7-.6,1.2-1.2,1.7-.6.4-1.5.6-2.5.6s-2.2-.3-2.8-1c-.6-.6-.8-1.5-.7-2.6l.3-1.7h18.2l1-6.3c.4-2.7.2-5.1-.7-7.2-.9-2.1-2.4-3.7-4.4-4.8M138.9,34.2c.1-1.1.6-2,1.3-2.6.7-.6,1.6-.9,2.7-.9s2,.3,2.6,1c.6.6.8,1.5.7,2.6l-.3,1.4h-7.3l.2-1.4Z"/>
        <path class="st0" d="M178.5,14.8h-10.3l-.8,5.5c-.3.9-.7,1.6-1.2,2.1-.6.5-1.3.7-2.2.7h-2.9l-1.6,9.8h5.1l-2,12.5c-.4,2.9.2,5.2,1.8,7,1.6,1.8,4,2.7,7.1,2.7h6.7l1.6-10.1h-3.6c-.8,0-1.3-.2-1.7-.6-.4-.4-.5-1-.3-1.8l1.5-9.6h6.3l1.6-9.8h-6.4l1.3-8.3Z"/>
        <polygon class="st0" points="205.1 12.3 193 12.3 186.8 29.8 195.1 29.8 204.9 13.6 205.1 12.3"/>
        <path class="st0" d="M221.2,23.5c-2-.8-4.4-1.2-7.2-1.2-4,0-7.2.9-9.8,2.6-2.6,1.7-4.2,4.1-4.7,7.3-.4,2.3-.1,4.2.8,5.6s2.1,2.5,3.5,3.2c1.4.7,3.2,1.4,5.3,2,1.1.3,2,.6,2.8.9.7.3,1.3.7,1.7,1,.4.4.6.8.5,1.3,0,.4-.2.8-.5,1.1-.3.3-.7.5-1.2.7-.5.1-1.1.2-1.8.2-1,0-1.7-.2-2.2-.7-.5-.5-.7-1.1-.6-1.8l.2-.6h-10.7v.5c-.4,2-.1,3.8.8,5.3.9,1.5,2.4,2.7,4.4,3.6,2,.9,4.5,1.3,7.4,1.3s5.1-.4,7.3-1.2,3.8-2,5.1-3.5c1.3-1.5,2.2-3.3,2.6-5.4.3-2.4,0-4.3-.9-5.8-.9-1.4-2.1-2.4-3.5-3.1-1.4-.7-3.2-1.3-5.3-1.9-1.1-.3-2-.5-2.7-.8-.8-.3-1.3-.6-1.7-1-.4-.3-.5-.8-.4-1.4,0-.5.4-.9.9-1.2.6-.3,1.3-.5,2.1-.5s1.6.2,2,.6.6.9.5,1.5v.5c-.1,0,10.5,0,10.5,0v-.6c.4-2,0-3.7-.8-5.1-.9-1.4-2.3-2.6-4.3-3.4"/>
        <path class="st0" d="M273,13.4c-2.4-1.3-5.4-1.9-9-1.9s-6.7.7-9.5,2c-2.8,1.3-5.2,3.2-7,5.6-1.8,2.5-3,5.3-3.5,8.6l-1.9,12c-.5,3.3-.2,6.1.9,8.6,1.1,2.5,2.8,4.3,5.2,5.6,2.4,1.3,5.4,2,8.9,2s6.7-.6,9.6-1.9c2.8-1.3,5.2-3.1,7-5.4,1.8-2.4,3-5.1,3.5-8.2l1.5-9.1h-16.9l-1.4,9.2h5.2v.4c-.3,1.5-1.1,2.6-2.3,3.5-1.2.9-2.8,1.4-4.6,1.4s-2.1-.2-2.9-.6c-.8-.4-1.4-1.1-1.7-2-.3-.9-.4-1.9-.3-3l2-12.4c.2-1.6.9-2.9,2.2-4,1.3-1,2.8-1.5,4.5-1.5s2.2.2,3,.6c.8.4,1.4,1,1.8,1.7.4.7.5,1.6.4,2.6v.4c0,0,11.4,0,11.4,0v-.5c.6-3.1.3-5.8-.8-8.2-1.1-2.4-2.9-4.2-5.3-5.4"/>
        <path class="st0" d="M305.7,24c-2.1-1.1-4.6-1.6-7.4-1.6s-5.5.5-7.8,1.6c-2.4,1.1-4.3,2.7-5.9,4.7-1.5,2.1-2.5,4.4-2.9,7.1l-1.1,6.5c-.4,2.7-.1,5.1.7,7.1.9,2.1,2.4,3.6,4.5,4.7,2.1,1.1,4.6,1.6,7.5,1.6s5.4-.5,7.8-1.6c2.4-1.1,4.3-2.7,5.8-4.8,1.5-2.1,2.5-4.5,2.8-7.1l1.1-6.5c.4-2.7.2-5.1-.7-7.1-.9-2.1-2.4-3.6-4.5-4.7M299.9,35.8l-1,6.5c-.2,1-.6,1.8-1.4,2.5-.7.6-1.7.9-2.8.9s-1.9-.3-2.5-.9c-.6-.6-.8-1.4-.6-2.5l1.1-6.5c.2-1.1.6-1.9,1.4-2.5.8-.6,1.8-.9,2.9-.9s1.9.3,2.4.9c.5.6.7,1.4.5,2.5"/>
        <polygon class="st0" points="318.7 12.3 316.9 23.3 315.8 39.7 324.7 39.7 328.6 23.3 330.3 12.3 318.7 12.3"/>
        <path class="st0" d="M319.9,42.3c-2.1,0-3.9.6-5.3,1.8-1.4,1.2-2.3,2.9-2.6,5-.3,2,0,3.6,1.1,4.8,1,1.3,2.6,1.9,4.6,1.9s3.7-.6,5.1-1.9c1.4-1.2,2.3-2.9,2.6-4.9.3-2.1,0-3.7-1.1-5-1-1.2-2.5-1.8-4.5-1.8"/>
        <path class="st0" d="M328.7,53h-.7v2.1h-.4v-2.1h-.7v-.3h1.9v.3ZM331.8,55.1h-.4v-2h0l-.8,2h-.2l-.8-2h0v2h-.4v-2.4h.6l.7,1.8.7-1.8h.6v2.4Z"/>
        <path class="st0" d="M57.6,34.4l-8.3,13.1-10.7-15.5-8.2,12.1,17.3,27.1c.6,1,1.1,1.2,1.3,1.2.5,0,.8-.3,1.4-1.2l13.6-24.8c1.2-2.1,3.2-2.1,3.2-2.1h9.8v-12.3h-15.3c-2.8,0-4.2,2.3-4.2,2.3M77.1,0h-13.7c-2.4,0-3.2.9-4,2l-10.1,15-9.7-14.7-.3-.5s-.3-.4-.7-.4h0s0,0,0,0h0s0,0,0,0c-.5,0-.7.4-.7.4l-.3.5-9.4,14.7L17.7,2C16.9.9,16.1,0,13.7,0h-.8S0,0,0,0v12.3s7.6,0,7.6,0c1.6,0,2.3,0,3.4,1.3l.5.7,15.3,24s.5.8,1.3.8c.9,0,1.4-.8,1.4-.8l8.9-13.4h0s0,0,0,0l9.3,13.4s.5.8,1.3.8c.8,0,1.3-.8,1.3-.8l15.1-24,.5-.7c.8-1.2,1.8-1.4,3.4-1.3h7.7V0Z"/>
        <path class="st0" d="M55.3,70.5c.3,0,.6,0,.6-.3s-.2-.3-.4-.3h-.4v.6h.3ZM55,71.6h-.2v-1.9h.7c.4,0,.6.2.6.5s-.2.5-.5.5l.6.8h-.3l-.5-.8h-.4v.8ZM54,70.6c0,.8.6,1.4,1.4,1.4s1.4-.6,1.4-1.4-.6-1.4-1.4-1.4-1.4.6-1.4,1.4M56.9,70.6c0,.9-.7,1.6-1.6,1.6s-1.6-.7-1.6-1.6.7-1.6,1.6-1.6,1.6.7,1.6,1.6"/>
      </g>
    </g>
  </g>
</svg>